<?xml version="1.0" encoding="UTF-8" standalone="no"?>
<svg
   contentScriptType="text/ecmascript"
   width="810"
   zoomAndPan="magnify"
   contentStyleType="text/css"
   viewBox="0 0 810 809.999993"
   height="809.999993"
   preserveAspectRatio="xMidYMid meet"
   version="1.0"
   id="svg4"
   sodipodi:docname="github.svg"
   inkscape:version="1.1.1 (3bf5ae0d25, 2021-09-20)"
   xmlns:inkscape="http://www.inkscape.org/namespaces/inkscape"
   xmlns:sodipodi="http://sodipodi.sourceforge.net/DTD/sodipodi-0.dtd"
   xmlns="http://www.w3.org/2000/svg"
   xmlns:svg="http://www.w3.org/2000/svg">
  <defs
     id="defs8" />
  <sodipodi:namedview
     id="namedview6"
     pagecolor="#ffffff"
     bordercolor="#999999"
     borderopacity="1"
     inkscape:pageshadow="0"
     inkscape:pageopacity="0"
     inkscape:pagecheckerboard="0"
     showgrid="false"
     inkscape:zoom="0.67480684"
     inkscape:cx="-143.00388"
     inkscape:cy="417.15641"
     inkscape:window-width="1920"
     inkscape:window-height="950"
     inkscape:window-x="0"
     inkscape:window-y="28"
     inkscape:window-maximized="1"
     inkscape:current-layer="svg4"
     showguides="true"
     inkscape:guide-bbox="true">
    <sodipodi:guide
       position="-182.27438,810"
       orientation="0,1"
       id="guide6"
       inkscape:label=""
       inkscape:locked="false"
       inkscape:color="rgb(0,0,255)" />
  </sodipodi:namedview>
  <circle
     style="fill:#ffffff;stroke-width:1.13919"
     id="path30"
     cx="405"
     cy="405"
     r="405" />
  <path
     fill="rgb(0%, 0%, 0%)"
     d="M 404.9648,-3.4999999e-6 C 181.33984,-3.4999999e-6 9.9999999e-7,181.33984 9.9999999e-7,405.0352 9.9999999e-7,583.9414 116.03125,735.75 276.9844,789.3125 c 20.25,3.7109 27.6445,-8.7773 27.6445,-19.5078 0,-9.6211 -0.3398,-35.1016 -0.543,-68.8828 -112.6562,24.4687 -136.41403,-54.3047 -136.41403,-54.3047 -18.42968,-46.7774 -44.95703,-59.2305 -44.95703,-59.2305 -36.789059,-25.1445 2.76954,-24.6054 2.76954,-24.6054 40.63281,2.8671 62.03124,41.75 62.03124,41.75 36.11328,61.8945 94.80468,44.0078 117.85548,33.6484 3.6758,-26.1563 14.1406,-44.0117 25.7148,-54.1367 -89.9414,-10.2266 -184.47653,-44.9532 -184.47653,-200.1719 0,-44.2109 15.79688,-80.3555 41.6836,-108.6719 -4.15235,-10.2617 -18.0586,-51.4375 3.98043,-107.19139 0,0 34.0196,-10.90234 111.375,41.51169 32.3008,-8.9765 66.961,-13.4648 101.3868,-13.6328 34.3906,0.168 69.0507,4.6563 101.3828,13.6328 77.3203,-52.41403 111.2734,-41.51169 111.2734,-41.51169 22.1055,55.75389 8.2031,96.92969 4.0156,107.19139 25.9571,28.3164 41.6172,64.461 41.6172,108.6719 0,155.5898 -94.7031,189.8125 -184.9179,199.8359 14.5468,12.4883 27.5078,37.2266 27.5078,74.9922 0,54.1328 -0.5078,97.8086 -0.5078,111.1055 0,10.832 7.289,23.4219 27.8437,19.4726 C 694.0703,735.582 810,583.9102 810,405.0352 810,181.33984 628.6602,-3.4999999e-6 404.9648,-3.4999999e-6 Z m 0,0"
     fill-opacity="1"
     fill-rule="evenodd"
     id="path2"
     style="fill:#800080" />
</svg>
