<?xml version="1.0" encoding="UTF-8"?><svg xmlns="http://www.w3.org/2000/svg" xmlns:xlink="http://www.w3.org/1999/xlink" contentScriptType="text/ecmascript" width="810" zoomAndPan="magnify" contentStyleType="text/css" viewBox="0 0 810 809.999993" height="809.999993" preserveAspectRatio="xMidYMid meet" version="1.0"><path fill="rgb(12.939453%, 59.21936%, 74.119568%)" d="M 810.011719 405.015625 C 810.011719 411.644531 809.851562 418.269531 809.527344 424.890625 C 809.199219 431.507812 808.710938 438.117188 808.0625 444.714844 C 807.414062 451.308594 806.601562 457.886719 805.628906 464.441406 C 804.65625 471 803.523438 477.527344 802.230469 484.027344 C 800.9375 490.53125 799.488281 496.996094 797.875 503.425781 C 796.265625 509.855469 794.5 516.238281 792.574219 522.582031 C 790.648438 528.925781 788.570312 535.21875 786.339844 541.457031 C 784.105469 547.699219 781.722656 553.878906 779.183594 560.003906 C 776.648438 566.128906 773.960938 572.183594 771.128906 578.175781 C 768.292969 584.167969 765.316406 590.085938 762.191406 595.933594 C 759.066406 601.777344 755.800781 607.542969 752.394531 613.230469 C 748.984375 618.914062 745.441406 624.511719 741.757812 630.023438 C 738.074219 635.535156 734.261719 640.953125 730.3125 646.277344 C 726.363281 651.601562 722.285156 656.824219 718.082031 661.945312 C 713.878906 667.070312 709.550781 672.089844 705.097656 677 C 700.648438 681.910156 696.078125 686.710938 691.390625 691.394531 C 686.703125 696.082031 681.90625 700.652344 676.992188 705.101562 C 672.082031 709.554688 667.066406 713.882812 661.941406 718.085938 C 656.816406 722.292969 651.59375 726.367188 646.269531 730.316406 C 640.945312 734.265625 635.53125 738.082031 630.019531 741.761719 C 624.507812 745.445312 618.910156 748.992188 613.222656 752.398438 C 607.539062 755.804688 601.773438 759.070312 595.929688 762.195312 C 590.082031 765.320312 584.164062 768.300781 578.171875 771.132812 C 572.179688 773.96875 566.121094 776.652344 560 779.1875 C 553.875 781.726562 547.691406 784.109375 541.453125 786.34375 C 535.210938 788.578125 528.921875 790.65625 522.578125 792.578125 C 516.234375 794.503906 509.847656 796.269531 503.417969 797.882812 C 496.988281 799.492188 490.523438 800.941406 484.023438 802.234375 C 477.523438 803.53125 470.992188 804.664062 464.4375 805.636719 C 457.882812 806.605469 451.304688 807.417969 444.707031 808.066406 C 438.113281 808.71875 431.503906 809.207031 424.882812 809.53125 C 418.265625 809.855469 411.640625 810.019531 405.011719 810.019531 C 398.382812 810.019531 391.757812 809.855469 385.140625 809.53125 C 378.519531 809.207031 371.910156 808.71875 365.316406 808.066406 C 358.71875 807.417969 352.140625 806.605469 345.585938 805.632812 C 339.027344 804.664062 332.5 803.53125 326 802.234375 C 319.5 800.941406 313.035156 799.492188 306.605469 797.878906 C 300.175781 796.269531 293.789062 794.503906 287.445312 792.578125 C 281.101562 790.65625 274.8125 788.578125 268.570312 786.34375 C 262.328125 784.109375 256.148438 781.726562 250.023438 779.1875 C 243.902344 776.652344 237.84375 773.96875 231.851562 771.132812 C 225.859375 768.300781 219.941406 765.320312 214.09375 762.195312 C 208.25 759.070312 202.484375 755.804688 196.800781 752.398438 C 191.113281 748.992188 185.515625 745.445312 180.003906 741.761719 C 174.492188 738.082031 169.078125 734.265625 163.753906 730.316406 C 158.429688 726.367188 153.203125 722.292969 148.082031 718.085938 C 142.957031 713.882812 137.941406 709.554688 133.027344 705.101562 C 128.117188 700.652344 123.320312 696.082031 118.632812 691.394531 C 113.945312 686.710938 109.375 681.910156 104.925781 677 C 100.472656 672.089844 96.144531 667.070312 91.941406 661.945312 C 87.734375 656.824219 83.660156 651.601562 79.710938 646.277344 C 75.761719 640.953125 71.949219 635.535156 68.265625 630.023438 C 64.582031 624.511719 61.039062 618.914062 57.628906 613.230469 C 54.222656 607.542969 50.957031 601.777344 47.832031 595.933594 C 44.707031 590.085938 41.726562 584.167969 38.894531 578.175781 C 36.0625 572.183594 33.375 566.128906 30.839844 560.003906 C 28.300781 553.878906 25.917969 547.699219 23.683594 541.457031 C 21.453125 535.21875 19.375 528.925781 17.449219 522.582031 C 15.523438 516.238281 13.757812 509.855469 12.148438 503.425781 C 10.535156 496.996094 9.085938 490.53125 7.792969 484.027344 C 6.5 477.527344 5.367188 471 4.394531 464.441406 C 3.421875 457.886719 2.609375 451.308594 1.960938 444.714844 C 1.308594 438.117188 0.824219 431.507812 0.496094 424.890625 C 0.171875 418.269531 0.0117188 411.644531 0.0117188 405.015625 C 0.0117188 398.386719 0.171875 391.765625 0.496094 385.144531 C 0.824219 378.523438 1.308594 371.914062 1.960938 365.320312 C 2.609375 358.722656 3.421875 352.148438 4.394531 345.589844 C 5.367188 339.035156 6.5 332.503906 7.792969 326.003906 C 9.085938 319.503906 10.535156 313.039062 12.148438 306.609375 C 13.757812 300.179688 15.523438 293.792969 17.449219 287.449219 C 19.375 281.109375 21.453125 274.816406 23.683594 268.574219 C 25.917969 262.335938 28.300781 256.152344 30.839844 250.027344 C 33.375 243.90625 36.0625 237.847656 38.894531 231.855469 C 41.726562 225.863281 44.707031 219.945312 47.832031 214.101562 C 50.957031 208.253906 54.222656 202.488281 57.628906 196.804688 C 61.039062 191.117188 64.582031 185.519531 68.265625 180.007812 C 71.949219 174.5 75.761719 169.082031 79.710938 163.757812 C 83.660156 158.433594 87.734375 153.210938 91.941406 148.085938 C 96.144531 142.960938 100.472656 137.945312 104.925781 133.035156 C 109.375 128.121094 113.945312 123.324219 118.632812 118.636719 C 123.320312 113.949219 128.117188 109.382812 133.027344 104.929688 C 137.941406 100.480469 142.957031 96.152344 148.082031 91.945312 C 153.203125 87.742188 158.429688 83.664062 163.753906 79.714844 C 169.078125 75.769531 174.492188 71.953125 180.003906 68.269531 C 185.515625 64.585938 191.113281 61.042969 196.800781 57.636719 C 202.484375 54.226562 208.25 50.960938 214.09375 47.835938 C 219.941406 44.710938 225.859375 41.734375 231.851562 38.898438 C 237.84375 36.066406 243.902344 33.378906 250.023438 30.84375 C 256.148438 28.308594 262.328125 25.921875 268.570312 23.691406 C 274.8125 21.457031 281.101562 19.378906 287.445312 17.453125 C 293.789062 15.53125 300.175781 13.761719 306.605469 12.152344 C 313.035156 10.542969 319.5 9.089844 326 7.796875 C 332.5 6.503906 339.027344 5.371094 345.585938 4.398438 C 352.140625 3.425781 358.71875 2.613281 365.316406 1.964844 C 371.910156 1.316406 378.519531 0.828125 385.140625 0.503906 C 391.757812 0.175781 398.382812 0.015625 405.011719 0.015625 C 411.640625 0.015625 418.265625 0.175781 424.882812 0.503906 C 431.503906 0.828125 438.113281 1.316406 444.707031 1.964844 C 451.304688 2.613281 457.882812 3.425781 464.4375 4.398438 C 470.992188 5.371094 477.523438 6.503906 484.023438 7.796875 C 490.523438 9.089844 496.988281 10.542969 503.417969 12.152344 C 509.847656 13.761719 516.234375 15.53125 522.578125 17.453125 C 528.921875 19.378906 535.210938 21.457031 541.453125 23.691406 C 547.691406 25.921875 553.875 28.308594 560 30.84375 C 566.121094 33.378906 572.179688 36.066406 578.171875 38.898438 C 584.164062 41.734375 590.082031 44.710938 595.929688 47.835938 C 601.773438 50.960938 607.539062 54.226562 613.222656 57.636719 C 618.910156 61.042969 624.507812 64.585938 630.019531 68.269531 C 635.53125 71.953125 640.945312 75.769531 646.269531 79.714844 C 651.59375 83.664062 656.816406 87.742188 661.941406 91.945312 C 667.066406 96.152344 672.082031 100.480469 676.992188 104.929688 C 681.90625 109.382812 686.703125 113.949219 691.390625 118.636719 C 696.078125 123.324219 700.648438 128.121094 705.097656 133.035156 C 709.550781 137.945312 713.878906 142.960938 718.082031 148.085938 C 722.285156 153.210938 726.363281 158.433594 730.3125 163.757812 C 734.261719 169.082031 738.074219 174.5 741.757812 180.007812 C 745.441406 185.519531 748.984375 191.117188 752.394531 196.804688 C 755.800781 202.488281 759.066406 208.253906 762.191406 214.101562 C 765.316406 219.945312 768.292969 225.863281 771.128906 231.855469 C 773.960938 237.847656 776.648438 243.90625 779.183594 250.027344 C 781.722656 256.152344 784.105469 262.335938 786.339844 268.574219 C 788.570312 274.816406 790.648438 281.109375 792.574219 287.449219 C 794.5 293.792969 796.265625 300.179688 797.875 306.609375 C 799.488281 313.039062 800.9375 319.503906 802.230469 326.003906 C 803.523438 332.503906 804.65625 339.035156 805.628906 345.589844 C 806.601562 352.148438 807.414062 358.722656 808.0625 365.320312 C 808.710938 371.914062 809.199219 378.523438 809.527344 385.144531 C 809.851562 391.765625 810.011719 398.386719 810.011719 405.015625 Z M 810.011719 405.015625 " fill-opacity="1" fill-rule="nonzero"/><path fill="rgb(100%, 100%, 100%)" d="M 303.023438 210.371094 C 303.023438 212.136719 302.9375 213.898438 302.765625 215.65625 C 302.59375 217.410156 302.332031 219.15625 301.988281 220.886719 C 301.644531 222.617188 301.214844 224.328125 300.703125 226.019531 C 300.191406 227.707031 299.597656 229.367188 298.921875 231 C 298.246094 232.628906 297.492188 234.222656 296.660156 235.78125 C 295.828125 237.335938 294.921875 238.851562 293.941406 240.316406 C 292.960938 241.785156 291.910156 243.203125 290.789062 244.566406 C 289.671875 245.929688 288.484375 247.238281 287.238281 248.484375 C 285.988281 249.734375 284.683594 250.917969 283.316406 252.039062 C 281.953125 253.15625 280.539062 254.207031 279.070312 255.1875 C 277.601562 256.167969 276.089844 257.078125 274.53125 257.910156 C 272.976562 258.742188 271.382812 259.496094 269.75 260.171875 C 268.121094 260.84375 266.460938 261.441406 264.769531 261.953125 C 263.082031 262.464844 261.371094 262.894531 259.640625 263.238281 C 257.90625 263.582031 256.164062 263.839844 254.40625 264.011719 C 252.648438 264.1875 250.890625 264.273438 249.125 264.273438 C 247.359375 264.273438 245.597656 264.1875 243.839844 264.011719 C 242.082031 263.839844 240.339844 263.582031 238.609375 263.238281 C 236.875 262.894531 235.167969 262.464844 233.476562 261.953125 C 231.789062 261.441406 230.128906 260.84375 228.496094 260.171875 C 226.867188 259.496094 225.273438 258.742188 223.714844 257.910156 C 222.15625 257.078125 220.644531 256.167969 219.179688 255.1875 C 217.710938 254.207031 216.292969 253.15625 214.929688 252.039062 C 213.566406 250.917969 212.257812 249.734375 211.011719 248.484375 C 209.761719 247.238281 208.578125 245.929688 207.457031 244.566406 C 206.335938 243.203125 205.289062 241.785156 204.304688 240.316406 C 203.324219 238.851562 202.417969 237.335938 201.585938 235.78125 C 200.753906 234.222656 200 232.628906 199.324219 231 C 198.648438 229.367188 198.054688 227.707031 197.542969 226.019531 C 197.03125 224.328125 196.601562 222.617188 196.257812 220.886719 C 195.914062 219.15625 195.65625 217.410156 195.480469 215.65625 C 195.308594 213.898438 195.222656 212.136719 195.222656 210.371094 C 195.222656 208.605469 195.308594 206.84375 195.480469 205.089844 C 195.65625 203.332031 195.914062 201.585938 196.257812 199.855469 C 196.601562 198.125 197.03125 196.414062 197.542969 194.726562 C 198.054688 193.035156 198.648438 191.375 199.324219 189.746094 C 200 188.113281 200.753906 186.519531 201.585938 184.964844 C 202.417969 183.40625 203.324219 181.894531 204.304688 180.425781 C 205.289062 178.957031 206.335938 177.542969 207.457031 176.175781 C 208.578125 174.8125 209.761719 173.507812 211.011719 172.257812 C 212.257812 171.007812 213.566406 169.824219 214.929688 168.707031 C 216.292969 167.585938 217.710938 166.535156 219.179688 165.554688 C 220.644531 164.574219 222.15625 163.667969 223.714844 162.835938 C 225.273438 162.003906 226.867188 161.25 228.496094 160.574219 C 230.128906 159.898438 231.789062 159.304688 233.476562 158.792969 C 235.167969 158.277344 236.875 157.851562 238.609375 157.507812 C 240.339844 157.160156 242.082031 156.902344 243.839844 156.730469 C 245.597656 156.558594 247.359375 156.472656 249.125 156.46875 C 250.890625 156.472656 252.648438 156.558594 254.40625 156.730469 C 256.164062 156.902344 257.90625 157.160156 259.640625 157.507812 C 261.371094 157.851562 263.082031 158.277344 264.769531 158.792969 C 266.460938 159.304688 268.121094 159.898438 269.75 160.574219 C 271.382812 161.25 272.976562 162.003906 274.53125 162.835938 C 276.089844 163.667969 277.601562 164.574219 279.070312 165.554688 C 280.539062 166.535156 281.953125 167.585938 283.316406 168.707031 C 284.683594 169.824219 285.988281 171.007812 287.238281 172.257812 C 288.484375 173.507812 289.671875 174.8125 290.789062 176.175781 C 291.910156 177.542969 292.960938 178.957031 293.941406 180.425781 C 294.921875 181.894531 295.828125 183.40625 296.660156 184.964844 C 297.492188 186.519531 298.246094 188.113281 298.921875 189.746094 C 299.597656 191.375 300.191406 193.035156 300.703125 194.726562 C 301.214844 196.414062 301.644531 198.125 301.988281 199.855469 C 302.332031 201.585938 302.59375 203.332031 302.765625 205.089844 C 302.9375 206.84375 303.023438 208.605469 303.023438 210.371094 Z M 303.023438 210.371094 " fill-opacity="1" fill-rule="nonzero"/><path fill="rgb(100%, 100%, 100%)" d="M 202.65625 304.015625 L 295.257812 304.015625 L 295.257812 601.90625 L 202.65625 601.90625 Z M 202.65625 304.015625 " fill-opacity="1" fill-rule="nonzero"/><path fill="rgb(100%, 100%, 100%)" d="M 353.496094 304.015625 L 441.636719 304.015625 L 441.636719 601.90625 L 353.496094 601.90625 Z M 353.496094 304.015625 " fill-opacity="1" fill-rule="nonzero"/><path fill="rgb(100%, 100%, 100%)" d="M 357.3125 462.617188 L 445.445312 462.617188 L 445.445312 601.90625 L 357.3125 601.90625 Z M 357.3125 462.617188 " fill-opacity="1" fill-rule="nonzero"/><path fill="rgb(100%, 100%, 100%)" d="M 445.445312 462.617188 C 445.445312 462.617188 444.070312 423.984375 454.257812 403.894531 C 454.257812 403.894531 464.449219 379.15625 496.476562 379.003906 C 496.476562 379.003906 534.039062 372.445312 544.8125 409.71875 C 544.8125 409.71875 548.890625 430.390625 548.890625 439.132812 C 548.890625 447.867188 549.183594 601.914062 549.183594 601.914062 L 641.492188 601.914062 L 641.492188 431.269531 C 641.492188 431.269531 648.191406 334.886719 590.339844 308.480469 C 590.339844 308.480469 495.210938 265.777344 443.578125 344.203125 C 443.578125 344.203125 432.320312 351.964844 430.761719 330.226562 C 429.207031 308.480469 416.011719 363.617188 415.621094 364.78125 C 415.234375 365.949219 430.761719 474.660156 430.761719 474.660156 Z M 445.445312 462.617188 " fill-opacity="1" fill-rule="nonzero"/></svg>