<svg xmlns="http://www.w3.org/2000/svg" xmlns:xlink="http://www.w3.org/1999/xlink" width="40" zoomAndPan="magnify" viewBox="0 0 30 30.000001" height="40" preserveAspectRatio="xMidYMid meet" version="1.0"><defs><clipPath id="id1"><path d="M 1.933594 2.425781 L 28.066406 2.425781 L 28.066406 26 L 1.933594 26 Z M 1.933594 2.425781 " clip-rule="nonzero"/></clipPath></defs><g clip-path="url(#id1)"><path fill="#d67ba8" d="M 23.398438 10.359375 C 23.128906 10.265625 22.851562 10.179688 22.5625 10.097656 C 22.609375 9.902344 22.652344 9.714844 22.691406 9.527344 C 23.324219 6.472656 22.910156 4.011719 21.492188 3.203125 C 20.132812 2.425781 17.90625 3.234375 15.660156 5.171875 C 15.445312 5.359375 15.226562 5.554688 15.011719 5.761719 C 14.867188 5.625 14.722656 5.492188 14.582031 5.367188 C 12.226562 3.296875 9.867188 2.421875 8.449219 3.234375 C 7.089844 4.015625 6.6875 6.328125 7.257812 9.222656 C 7.3125 9.503906 7.378906 9.789062 7.453125 10.078125 C 7.117188 10.175781 6.796875 10.273438 6.488281 10.378906 C 3.726562 11.332031 1.964844 12.828125 1.964844 14.378906 C 1.964844 15.976562 3.855469 17.585938 6.730469 18.558594 C 6.957031 18.632812 7.195312 18.707031 7.4375 18.777344 C 7.355469 19.089844 7.289062 19.398438 7.230469 19.699219 C 6.6875 22.542969 7.113281 24.800781 8.46875 25.574219 C 9.867188 26.375 12.214844 25.554688 14.503906 23.574219 C 14.683594 23.417969 14.867188 23.25 15.046875 23.078125 C 15.285156 23.300781 15.519531 23.515625 15.753906 23.714844 C 17.96875 25.601562 20.15625 26.363281 21.511719 25.589844 C 22.910156 24.785156 23.363281 22.359375 22.773438 19.40625 C 22.730469 19.179688 22.675781 18.953125 22.617188 18.71875 C 22.78125 18.667969 22.945312 18.617188 23.101562 18.566406 C 26.09375 17.585938 28.035156 16 28.035156 14.378906 C 28.035156 12.824219 26.214844 11.316406 23.398438 10.359375 Z M 22.753906 17.519531 C 22.609375 17.566406 22.464844 17.613281 22.316406 17.65625 C 21.984375 16.621094 21.539062 15.519531 20.992188 14.382812 C 21.515625 13.273438 21.941406 12.1875 22.261719 11.160156 C 22.53125 11.234375 22.789062 11.316406 23.039062 11.402344 C 25.449219 12.222656 26.921875 13.441406 26.921875 14.378906 C 26.921875 15.375 25.332031 16.671875 22.753906 17.519531 Z M 21.679688 19.621094 C 21.941406 20.925781 21.980469 22.105469 21.804688 23.03125 C 21.652344 23.859375 21.339844 24.414062 20.953125 24.632812 C 20.132812 25.105469 18.375 24.492188 16.480469 22.878906 C 16.261719 22.691406 16.042969 22.492188 15.824219 22.285156 C 16.558594 21.488281 17.292969 20.5625 18.007812 19.535156 C 19.269531 19.425781 20.460938 19.242188 21.539062 18.996094 C 21.59375 19.210938 21.640625 19.417969 21.679688 19.621094 Z M 10.851562 24.550781 C 10.050781 24.832031 9.410156 24.839844 9.023438 24.621094 C 8.203125 24.152344 7.859375 22.335938 8.328125 19.902344 C 8.378906 19.625 8.441406 19.339844 8.515625 19.046875 C 9.585938 19.28125 10.765625 19.449219 12.03125 19.550781 C 12.75 20.554688 13.507812 21.480469 14.269531 22.289062 C 14.101562 22.449219 13.9375 22.601562 13.769531 22.742188 C 12.761719 23.617188 11.746094 24.242188 10.851562 24.550781 Z M 7.09375 17.515625 C 5.820312 17.082031 4.769531 16.523438 4.050781 15.914062 C 3.402344 15.363281 3.078125 14.820312 3.078125 14.378906 C 3.078125 13.4375 4.492188 12.238281 6.855469 11.421875 C 7.140625 11.324219 7.441406 11.230469 7.75 11.144531 C 8.078125 12.195312 8.503906 13.292969 9.023438 14.40625 C 8.5 15.53125 8.066406 16.648438 7.734375 17.714844 C 7.511719 17.648438 7.296875 17.582031 7.09375 17.515625 Z M 8.351562 9.011719 C 7.863281 6.53125 8.1875 4.660156 9.007812 4.191406 C 9.878906 3.691406 11.808594 4.402344 13.839844 6.191406 C 13.972656 6.304688 14.101562 6.425781 14.234375 6.550781 C 13.476562 7.355469 12.726562 8.273438 12.011719 9.273438 C 10.785156 9.386719 9.609375 9.566406 8.53125 9.808594 C 8.464844 9.539062 8.402344 9.273438 8.351562 9.011719 Z M 19.597656 11.761719 C 19.339844 11.320312 19.074219 10.890625 18.804688 10.472656 C 19.636719 10.574219 20.433594 10.714844 21.183594 10.882812 C 20.960938 11.597656 20.679688 12.34375 20.347656 13.109375 C 20.113281 12.664062 19.863281 12.214844 19.597656 11.761719 Z M 15.011719 7.339844 C 15.527344 7.890625 16.039062 8.503906 16.546875 9.171875 C 16.035156 9.148438 15.519531 9.136719 15 9.136719 C 14.484375 9.136719 13.972656 9.148438 13.464844 9.171875 C 13.972656 8.511719 14.492188 7.894531 15.011719 7.339844 Z M 10.398438 11.769531 C 10.140625 12.214844 9.894531 12.660156 9.660156 13.105469 C 9.335938 12.34375 9.058594 11.59375 8.832031 10.871094 C 9.578125 10.707031 10.371094 10.570312 11.195312 10.46875 C 10.921875 10.894531 10.65625 11.328125 10.398438 11.769531 Z M 11.21875 18.363281 C 10.367188 18.269531 9.5625 18.140625 8.816406 17.980469 C 9.046875 17.246094 9.332031 16.480469 9.660156 15.703125 C 9.894531 16.148438 10.140625 16.59375 10.402344 17.039062 C 10.664062 17.492188 10.9375 17.933594 11.21875 18.363281 Z M 15.042969 21.496094 C 14.515625 20.929688 13.988281 20.304688 13.472656 19.636719 C 13.972656 19.65625 14.484375 19.664062 15 19.664062 C 15.53125 19.664062 16.058594 19.652344 16.574219 19.628906 C 16.066406 20.3125 15.554688 20.9375 15.042969 21.496094 Z M 20.359375 15.664062 C 20.707031 16.449219 21 17.210938 21.234375 17.933594 C 20.480469 18.105469 19.664062 18.242188 18.804688 18.34375 C 19.074219 17.921875 19.339844 17.480469 19.605469 17.03125 C 19.871094 16.574219 20.121094 16.117188 20.359375 15.664062 Z M 18.636719 16.480469 C 18.230469 17.179688 17.8125 17.847656 17.386719 18.476562 C 16.613281 18.53125 15.816406 18.5625 15 18.5625 C 14.1875 18.5625 13.398438 18.535156 12.640625 18.488281 C 12.199219 17.847656 11.769531 17.179688 11.363281 16.484375 C 10.960938 15.792969 10.589844 15.097656 10.253906 14.40625 C 10.589844 13.710938 10.960938 13.011719 11.363281 12.320312 L 11.363281 12.324219 C 11.765625 11.628906 12.1875 10.964844 12.625 10.328125 C 13.402344 10.269531 14.195312 10.242188 15 10.242188 C 15.808594 10.242188 16.601562 10.269531 17.378906 10.328125 C 17.808594 10.960938 18.230469 11.625 18.636719 12.316406 C 19.042969 13.015625 19.417969 13.710938 19.757812 14.390625 C 19.421875 15.082031 19.046875 15.78125 18.636719 16.480469 Z M 20.9375 4.15625 C 21.808594 4.65625 22.148438 6.667969 21.601562 9.304688 C 21.566406 9.472656 21.527344 9.644531 21.484375 9.820312 C 20.402344 9.570312 19.226562 9.386719 17.996094 9.273438 C 17.28125 8.261719 16.539062 7.34375 15.792969 6.550781 C 15.992188 6.359375 16.195312 6.175781 16.390625 6.003906 C 18.316406 4.34375 20.117188 3.691406 20.9375 4.15625 Z M 15 12.070312 C 16.285156 12.070312 17.328125 13.105469 17.328125 14.378906 C 17.328125 15.652344 16.285156 16.683594 15 16.683594 C 13.714844 16.683594 12.671875 15.652344 12.671875 14.378906 C 12.671875 13.105469 13.714844 12.070312 15 12.070312 Z M 15 12.070312 " fill-opacity="1" fill-rule="nonzero"/></g></svg>